<svg width="40" height="40" viewBox="0 0 40 40" fill="none" xmlns="http://www.w3.org/2000/svg">
<g clip-path="url(#clip0)">
<path fill-rule="evenodd" clip-rule="evenodd" d="M1.18407 13.5333C4.21852 10.4897 12.9865 7.2338 17.3397 6.12724C17.4812 6.01091 17.6226 5.89912 17.7663 5.78732C16.3495 -1.70088 -0.447261 -0.0330707 1.18407 13.5333Z" fill="#FE93D3"/>
<path fill-rule="evenodd" clip-rule="evenodd" d="M1.19328 24.3071C3.16453 19.2419 8.73375 18.683 13.2649 18.8312C13.2148 12.8876 15.4255 12.7462 17.3398 6.12725C16.6804 5.81468 15.9252 5.62757 15.0833 5.60936C8.43258 5.45194 3.37437 8.86061 1.18414 13.5333C0.467734 15.0644 0.0592969 16.7276 0 18.448V19.283C0.0570313 20.9441 0.440313 22.6416 1.19328 24.3071Z" fill="#FE93D3"/>
<path fill-rule="evenodd" clip-rule="evenodd" d="M1.19328 24.3071C3.16453 19.2419 7.77328 16.7823 12.3066 16.9307C12.3044 16.8896 12.3044 16.8486 12.3044 16.8097C12.3044 15.6119 12.4573 14.4506 12.7424 13.3417C7.96719 13.0998 3.07328 15.1282 0.0136719 19.5545C0.0364844 19.9789 0.0798438 20.4033 0.148281 20.8299C0.328516 21.989 0.673047 23.1572 1.19328 24.3071Z" fill="#ED72AA"/>
<path fill-rule="evenodd" clip-rule="evenodd" d="M11.9234 38.6288C14.8187 38.7839 19.4662 35.2086 21.1659 31.8661C21.4762 31.2524 21.7408 30.6272 21.953 30.0089C21.6107 25.1674 19.3269 18.9545 12.3067 16.9308C9.82892 16.8487 7.3283 17.5468 5.24986 19.0253C3.52502 20.2506 2.08767 22.0097 1.1933 24.3072C1.1933 26.6207 1.18877 25.9568 1.20924 26.2853C1.20924 27.9327 1.70658 29.9473 2.6808 31.8661C4.3783 35.2087 9.02806 38.7839 11.9234 38.6288Z" fill="#FFDFCF"/>
<path fill-rule="evenodd" clip-rule="evenodd" d="M11.9233 38.6288C14.8186 38.7839 19.4661 35.2086 21.1658 31.8661C21.4761 31.2524 21.7407 30.6272 21.9529 30.0089C20.8213 29.6485 19.7535 29.1465 18.7679 28.5259C18.6036 28.9388 18.4189 29.3518 18.2112 29.7603C16.5137 33.1028 11.8639 36.6781 8.9687 36.5229C8.00135 36.5754 6.84002 36.2103 5.65588 35.5783C7.67502 37.3967 10.1346 38.7246 11.9233 38.6288Z" fill="#FFCEBF"/>
<path d="M13.847 33.4008C13.7956 33.4008 13.7434 33.3942 13.6914 33.3803C12.7319 33.125 11.1104 33.125 10.1507 33.3803C9.8286 33.466 9.49782 33.2745 9.41204 32.9522C9.32634 32.63 9.51798 32.2993 9.84024 32.2136C11.0071 31.903 12.8351 31.9031 14.002 32.2136C14.3242 32.2993 14.5158 32.63 14.4302 32.9522C14.3581 33.2224 14.114 33.4008 13.847 33.4008Z" fill="#ED72AA"/>
<path d="M7.12759 25.3774C6.49774 25.3774 5.90563 25.1306 5.4604 24.6824C5.22548 24.4458 5.22673 24.0636 5.46329 23.8287C5.69985 23.5937 6.08212 23.595 6.31704 23.8315C6.53384 24.0498 6.82173 24.17 7.12759 24.17C7.43345 24.17 7.72134 24.0498 7.93813 23.8315C8.17305 23.5949 8.55524 23.5936 8.79188 23.8287C9.02852 24.0636 9.02977 24.4458 8.79477 24.6824C8.34954 25.1305 7.75743 25.3774 7.12759 25.3774Z" fill="#3D3D46"/>
<path d="M5.2316 29.125C5.07714 29.125 4.92261 29.066 4.80464 28.9482C4.56886 28.7124 4.56886 28.3302 4.80464 28.0945C5.0405 27.8587 5.42496 27.8564 5.66074 28.0922C5.89652 28.328 5.89879 28.7079 5.663 28.9437L5.65847 28.9482C5.54058 29.066 5.38605 29.125 5.2316 29.125Z" fill="#F5A96C"/>
<path d="M6.60049 32.4333C6.44604 32.4333 6.29151 32.3743 6.17354 32.2565C5.93776 32.0208 5.93776 31.6384 6.17354 31.4027C6.40948 31.167 6.79276 31.1658 7.02846 31.4015C7.26416 31.6372 7.26541 32.0184 7.02963 32.2541L7.02737 32.2564C6.90955 32.3743 6.75495 32.4333 6.60049 32.4333Z" fill="#F5A96C"/>
<path d="M9.89956 29.1272C9.74511 29.1272 9.59058 29.0682 9.47261 28.9504C9.23683 28.7146 9.23683 28.3324 9.47261 28.0967C9.70855 27.8611 10.0918 27.8597 10.3275 28.0955C10.5633 28.3313 10.5645 28.7124 10.3287 28.9481L10.3264 28.9504C10.2086 29.0682 10.054 29.1272 9.89956 29.1272Z" fill="#F5A96C"/>
<path d="M9.75357 21.2215C9.59912 21.2215 9.44458 21.1625 9.32662 21.0447C9.09084 20.809 9.09084 20.4266 9.32662 20.1909C9.56247 19.9551 9.94693 19.9529 10.1827 20.1886C10.4185 20.4244 10.4208 20.8044 10.185 21.0401L10.1804 21.0447C10.0626 21.1625 9.90802 21.2215 9.75357 21.2215Z" fill="#F5A96C"/>
<path fill-rule="evenodd" clip-rule="evenodd" d="M21.953 30.0088C23.2786 30.4287 24.6886 30.6568 26.1511 30.6568C33.7988 30.6569 40.0001 24.4554 40.0001 16.8097C40.0001 9.16178 33.7988 2.96045 26.1511 2.96045C23.0003 2.96045 20.0936 4.01451 17.7664 5.78732C17.6226 5.89912 17.4812 6.01092 17.3398 6.12725C15.6628 7.51217 14.3167 9.28498 13.4406 11.3087C12.7105 12.9948 12.3044 14.8544 12.3044 16.8097L12.3067 16.9306C12.3592 23.0614 16.3952 28.2406 21.953 30.0088Z" fill="#65CD98"/>
<path fill-rule="evenodd" clip-rule="evenodd" d="M16.0529 17.6723H36.8241C36.8469 17.3871 36.8583 17.0996 36.8583 16.8099C36.8583 10.896 32.0648 6.10229 26.151 6.10229C23.7075 6.10229 21.4557 6.92136 19.6532 8.29722C17.0957 10.2548 15.446 13.3396 15.446 16.8099C15.446 16.94 15.4483 17.0723 15.4529 17.2023C15.4552 17.2913 15.4598 17.3803 15.4643 17.4692C15.4689 17.5377 15.4735 17.6039 15.4803 17.6723H16.0529Z" fill="white"/>
<path fill-rule="evenodd" clip-rule="evenodd" d="M15.4802 17.6723C15.8225 21.9663 18.6994 25.5461 22.6123 26.9174C23.7212 27.3053 24.9121 27.5152 26.151 27.5152C31.775 27.5152 36.3837 23.1825 36.8241 17.6724H31.451C28.9687 17.6724 28.9824 13.7822 26.046 13.7822C24.9783 13.7822 24.3006 14.2956 23.7508 14.9482C22.788 16.0958 22.2198 17.6724 20.641 17.6724H16.0528H15.4802V17.6723Z" fill="#FFDFCF"/>
<path fill-rule="evenodd" clip-rule="evenodd" d="M26.151 20.9578C27.0773 20.9578 27.828 20.0063 27.828 18.8313C27.828 17.6563 27.0773 16.7025 26.151 16.7025C25.2269 16.7025 24.4763 17.6563 24.4763 18.8313C24.4764 20.0063 25.227 20.9578 26.151 20.9578Z" fill="#F5A96C"/>
<path fill-rule="evenodd" clip-rule="evenodd" d="M36.8583 16.8098C36.8583 11.8952 33.5478 7.75408 29.0372 6.49463C31.2024 8.81728 32.5554 12.1279 32.5554 15.8035C32.5554 16.4378 32.5143 17.063 32.4367 17.6722H36.8241C36.8469 17.387 36.8583 17.0995 36.8583 16.8098Z" fill="white"/>
<path fill-rule="evenodd" clip-rule="evenodd" d="M26.151 27.5151C31.775 27.5151 36.3837 23.1823 36.824 17.6722H32.4367C31.8685 22.1122 29.3064 25.8062 25.8339 27.5105C25.9388 27.5151 26.046 27.5151 26.151 27.5151Z" fill="#FFCEBF"/>
<path fill-rule="evenodd" clip-rule="evenodd" d="M40 16.8097C40 11.3088 36.7922 6.55845 32.1469 4.32251C33.2466 6.09306 34.0657 8.05978 34.5426 10.1566C35.9937 11.9842 36.8583 14.2954 36.8583 16.8097C36.8583 17.0995 36.8469 17.387 36.8241 17.6721C36.5184 21.5189 34.1752 24.793 30.8762 26.4198C29.5551 28.0831 27.9649 29.5182 26.1716 30.6567C33.8101 30.6454 40 24.4508 40 16.8097Z" fill="url(#paint0_linear)"/>
<path d="M14.4335 29.7616C14.2121 29.7616 13.9988 29.6394 13.8931 29.4278C13.744 29.1296 13.8649 28.7669 14.163 28.6179C14.4612 28.4687 14.8261 28.5884 14.9753 28.8867C15.1244 29.1849 15.0058 29.5464 14.7076 29.6955L14.7031 29.6978C14.6164 29.7411 14.5242 29.7616 14.4335 29.7616Z" fill="#F5A96C"/>
<path d="M26.151 11.5839C25.8176 11.5839 25.5474 11.3136 25.5474 10.9802V9.86905C25.5474 9.53561 25.8176 9.26538 26.151 9.26538C26.4845 9.26538 26.7547 9.53569 26.7547 9.86905V10.9802C26.7548 11.3136 26.4845 11.5839 26.151 11.5839Z" fill="#3D3D46"/>
<path d="M23.3471 12.7452C23.1926 12.7452 23.0381 12.6862 22.9201 12.5684L22.1352 11.7835C21.8994 11.5477 21.8994 11.1655 22.1352 10.9298C22.3711 10.694 22.7533 10.694 22.989 10.9298L23.774 11.7147C24.0097 11.9505 24.0097 12.3327 23.774 12.5684C23.6561 12.6863 23.5015 12.7452 23.3471 12.7452Z" fill="#3D3D46"/>
<path d="M28.9573 12.7453C28.8028 12.7453 28.6483 12.6864 28.5304 12.5685C28.2946 12.3327 28.2946 11.9505 28.5303 11.7147L29.3152 10.9298C29.551 10.694 29.9333 10.694 30.1689 10.9297C30.4048 11.1655 30.4048 11.5477 30.169 11.7835L29.3842 12.5685C29.2663 12.6864 29.1118 12.7453 28.9573 12.7453Z" fill="#3D3D46"/>
<path fill-rule="evenodd" clip-rule="evenodd" d="M1.18413 13.5333C3.37436 8.86068 8.43256 5.45192 15.0833 5.60935C15.9251 5.62763 16.6804 5.81466 17.3398 6.12724C17.4812 6.01091 17.6226 5.89911 17.7664 5.78731C17.5633 4.7195 17.05 3.8388 16.3199 3.14981C16.1625 3.13841 16.0028 3.12927 15.8385 3.12474C9.83577 2.98325 4.85514 5.13708 1.48756 8.53216C1.08827 9.97177 0.955923 11.6374 1.18413 13.5333Z" fill="#ED72AA"/>
</g>
<defs>
<linearGradient id="paint0_linear" x1="26.1716" y1="30.6567" x2="43.4148" y2="26.9095" gradientUnits="userSpaceOnUse">
<stop stop-color="#00A36E"/>
<stop offset="1" stop-color="#00A69B"/>
</linearGradient>
<clipPath id="clip0">
<rect width="40" height="40" fill="white"/>
</clipPath>
</defs>
</svg>
