<svg width="40" height="40" viewBox="0 0 40 40" fill="none" xmlns="http://www.w3.org/2000/svg">
<g clip-path="url(#clip0)">
<path fill-rule="evenodd" clip-rule="evenodd" d="M20 35.9368L28.6349 40H32.114C32.6661 40 32.8189 39.8768 32.787 39.3156L32.5177 34.0433C32.2736 30.0143 26.6478 28.6523 23.6068 27.8743C23.3467 27.8082 23.1916 27.6896 23.1916 27.4021V25.5473C21.4258 24.7329 18.403 24.7032 16.8084 25.5473V27.4021C16.8084 27.6895 16.6532 27.8082 16.3909 27.8743C13.3521 28.6523 7.72398 30.0143 7.48219 34.0433L7.21297 39.3156C7.18102 39.8608 7.31789 40 7.88594 40H11.365L20 35.9368Z" fill="#FFDFCF"/>
<path fill-rule="evenodd" clip-rule="evenodd" d="M23.1916 25.5473C24.1909 24.8766 25.1536 23.9822 25.8676 23.0423C25.6623 22.9647 26.8098 21.37 26.9444 20.8841C28.2266 16.2368 28.7056 17.5418 26.6821 14.6353C23.3741 7.33023 16.4616 8.03749 13.318 14.633C10.1629 17.9366 12.8001 21.8902 14.1302 23.0423C14.8465 23.9823 15.8092 24.8766 16.8084 25.5473C17.924 26.2956 19.0852 26.7701 20.0001 26.72C20.9148 26.7701 22.0761 26.2955 23.1916 25.5473Z" fill="#FFDFCF"/>
<path fill-rule="evenodd" clip-rule="evenodd" d="M26.0733 7.12929C26.0596 9.88585 24.1136 11.8271 21.6065 11.3619H21.6041C18.5788 10.7751 15.2636 11.8657 13.3184 14.6327L13.3136 14.5643C13.2242 13.0086 12.8685 11.6194 11.7095 10.5538C11.7232 10.4951 11.7377 10.4363 11.7538 10.3776C11.8939 9.8303 12.0846 9.29671 12.3252 8.78562C12.3944 8.63757 12.4685 8.49022 12.5457 8.34616C14.2118 5.2339 17.716 3.01179 22.2584 3.11882C23.0206 3.13733 23.6821 3.34499 24.2343 3.68702C25.4045 4.41218 26.0636 5.74249 26.0733 7.12929Z" fill="#FE93D3"/>
<path fill-rule="evenodd" clip-rule="evenodd" d="M12.3256 8.78571C13.8883 5.44571 17.5043 3.00688 22.2585 3.11868C23.0205 3.13696 23.6821 3.34454 24.2342 3.68673C23.8053 -2.1628 11.1256 -1.16804 12.3256 8.78571Z" fill="#FE93D3"/>
<path fill-rule="evenodd" clip-rule="evenodd" d="M28.4411 10.4214C28.4388 10.3233 28.5848 10.3028 28.6555 10.2503C28.2152 9.04119 27.3665 7.95978 26.073 7.12939C24.8046 8.61916 22.8677 10.5743 21.6061 11.3614C23.5727 11.7447 25.416 12.8353 26.6822 14.6353C26.7004 14.2975 28.5072 12.769 28.4411 10.4214Z" fill="#ED72AA"/>
<path fill-rule="evenodd" clip-rule="evenodd" d="M25.4913 20.884L27.7772 17.8634C27.0723 17.82 26.5339 17.2064 26.575 16.5014L26.6821 14.6352C25.6715 13.1979 24.2913 12.2123 22.7742 11.6785C23.5498 13.2572 23.9993 15.1439 23.9993 17.1698C23.9993 21.5114 21.9346 25.2095 19.0442 26.6125C19.3818 26.6969 19.7035 26.7357 20 26.7197C20.9149 26.7699 22.076 26.2953 23.1917 25.5471C24.1909 24.8763 25.1536 23.982 25.8677 23.0421C25.6624 22.9645 25.4707 22.8299 25.3247 22.6451C24.9004 22.1114 25.0807 21.4292 25.4913 20.884Z" fill="#FFCEBF"/>
<path fill-rule="evenodd" clip-rule="evenodd" d="M13.318 14.6329C15.264 11.8656 18.5788 10.775 21.6039 11.3614H21.6061C24.1133 11.8268 26.0593 9.88528 26.073 7.12935C26.0661 6.07763 25.6852 5.05786 24.9917 4.31177C25.0487 4.59013 25.0807 4.87981 25.0829 5.16958C25.0693 7.92325 23.121 9.867 20.6138 9.40161H20.6115C17.8168 8.85864 14.7736 9.74841 12.7911 12.0732C13.1218 12.8283 13.261 13.6679 13.3135 14.5645L13.318 14.6329Z" fill="#ED72AA"/>
<path fill-rule="evenodd" clip-rule="evenodd" d="M22.2996 29.3001C25.3384 30.0781 30.7451 31.0317 30.9869 35.0607V40H32.1139C32.6819 40 32.8188 39.8608 32.7869 39.3155L32.5176 34.0432C32.2735 30.0142 26.6477 28.6522 23.6067 27.8743C23.3466 27.8081 23.1915 27.6895 23.1915 27.402V25.5472C22.0759 26.2955 20.9147 26.7701 19.9998 26.7199C19.7033 26.7358 19.3816 26.6971 19.044 26.6127C18.3391 26.4347 17.5634 26.0537 16.8083 25.5473V27.0416C18.0516 28.1253 20.2554 28.2986 21.428 27.9086C21.9961 27.7215 21.882 27.8356 21.882 28.6523V28.828C21.8821 29.1131 22.0395 29.234 22.2996 29.3001Z" fill="#FFCEBF"/>
<path fill-rule="evenodd" clip-rule="evenodd" d="M12.2686 6.82601C12.2252 7.43515 12.2412 8.08992 12.3256 8.78578C13.8883 5.44578 17.5043 3.00695 22.2586 3.11875C23.0205 3.13703 23.6822 3.34461 24.2342 3.68679C24.1863 3.03429 23.9855 2.46851 23.6707 1.98945C23.1984 1.76359 22.6646 1.63125 22.076 1.61758C17.648 1.50344 14.1576 3.67539 12.2686 6.82601Z" fill="#ED72AA"/>
<path d="M22.3687 7.89136C22.2817 8.21331 21.9509 8.40401 21.6291 8.31628C18.7566 7.53964 14.7454 8.16175 12.6874 9.70222C12.5836 9.78026 12.4098 9.85831 11.7538 10.3775C11.8939 9.83019 12.0846 9.29659 12.3252 8.7855C12.3945 8.63745 12.4685 8.49011 12.5458 8.34605C14.9916 6.87323 18.9546 6.34284 21.9437 7.15089C22.2656 7.23862 22.4564 7.56948 22.3687 7.89136Z" fill="#ED72AA"/>
<path fill-rule="evenodd" clip-rule="evenodd" d="M20 40.0001H28.635V35.9118C28.635 35.6677 28.4364 35.4692 28.1924 35.4692H11.8054C11.5636 35.4692 11.3651 35.6678 11.3651 35.9118V40.0001H20Z" fill="#FE93D3"/>
<path fill-rule="evenodd" clip-rule="evenodd" d="M30.8296 19.287C32.6638 17.8087 32.3147 16.1409 32.4607 14.3501C32.5314 12.6801 32.8714 12.1302 33.4828 10.0747L36.3886 0.301172C36.4333 0.150937 36.3207 0 36.164 0H32.4554C32.3517 0 32.2603 0.0682031 32.2307 0.167656L29.6935 8.7082L29.5725 9.04125C29.3102 9.76898 29.0136 9.97437 28.6554 10.2504C28.5847 10.3029 28.514 10.3576 28.441 10.4215C27.1611 11.5006 26.7801 12.9424 26.6866 14.5645L26.6821 14.6352L26.5749 16.5014C26.5338 17.2063 27.0722 17.8201 27.7772 17.8634L25.4912 20.8841C25.0806 21.4293 24.9004 22.1115 25.3247 22.6453C25.4707 22.8301 25.6623 22.9647 25.8676 23.0423C26.26 23.1905 26.7094 23.1335 27.0357 22.8278L30.8296 19.287Z" fill="#FFD7C4"/>
<path fill-rule="evenodd" clip-rule="evenodd" d="M30.8296 19.287C32.6639 17.8087 32.3148 16.1409 32.4608 14.3501C32.5315 12.6801 32.8714 12.1302 33.4828 10.0747L36.3887 0.301172C36.4334 0.150937 36.3208 0 36.1641 0H34.8266L32.0342 9.39711C31.4228 11.4527 31.0829 12.0002 31.0122 13.6725C30.8639 15.4634 31.2153 17.1288 29.381 18.6095L25.5871 22.1502C25.4639 22.2666 25.3225 22.3464 25.1719 22.392C25.2107 22.4788 25.2609 22.5631 25.3247 22.6452C25.4707 22.83 25.6624 22.9646 25.8677 23.0422C26.2601 23.1905 26.7095 23.1334 27.0357 22.8277L30.8296 19.287Z" fill="#FFC5B4"/>
<path fill-rule="evenodd" clip-rule="evenodd" d="M29.1392 16.6588L29.3171 13.896C29.3377 13.5698 29.0799 13.2892 28.7536 13.2732L28.6441 13.2663C28.3178 13.2504 28.0464 13.5036 28.019 13.8299L27.7064 17.8566C27.7292 17.8588 27.7543 17.8611 27.7771 17.8634C28.4821 17.9067 29.0958 17.366 29.1392 16.6588Z" fill="#FFC5B4"/>
<path fill-rule="evenodd" clip-rule="evenodd" d="M9.17049 19.287C7.334 17.8087 7.68533 16.1409 7.53932 14.3501C7.46861 12.6801 7.12642 12.1302 6.51502 10.0747L3.61135 0.301094C3.56666 0.150859 3.67924 0 3.83596 0H7.54463C7.64838 0 7.73978 0.0682031 7.76932 0.167656L10.3066 8.7082L10.4275 9.04125C10.6899 9.76898 10.9864 9.97437 11.3446 10.2504C11.4131 10.3029 11.4838 10.3576 11.5591 10.4215C12.8367 11.5006 13.2199 12.9424 13.3135 14.5645L13.318 14.6352L13.4252 16.5014C13.4663 17.2063 12.9278 17.8201 12.2229 17.8634L14.5065 20.8841C14.9194 21.4293 15.0996 22.1115 14.6753 22.6453C14.527 22.8301 14.3377 22.9647 14.1301 23.0423C13.74 23.1905 13.2883 23.1335 12.962 22.8278L9.17049 19.287Z" fill="#FFD7C4"/>
<path fill-rule="evenodd" clip-rule="evenodd" d="M10.3066 8.70813L7.76929 0.167656C7.73976 0.0682031 7.64835 0 7.54468 0H6.20929L9.02445 9.47242L9.14538 9.80555C9.45796 10.6748 9.82069 10.8002 10.2769 11.1858C11.5545 12.2672 11.9378 13.7091 12.0313 15.3288L12.102 16.5494L12.1431 17.2657C12.1568 17.4779 12.1158 17.6809 12.0359 17.8612C12.0975 17.8657 12.1591 17.868 12.223 17.8634C12.928 17.8201 13.4664 17.2064 13.4253 16.5014L13.3181 14.6352V14.633L13.3136 14.5645C13.2246 13.0086 12.8687 11.6192 11.7098 10.5538C11.6619 10.5082 11.6116 10.4648 11.5592 10.4215C11.4839 10.3576 11.4132 10.3028 11.3448 10.2504C10.9866 9.97437 10.69 9.76898 10.4276 9.04125L10.3066 8.70813Z" fill="#FFC5B4"/>
<path fill-rule="evenodd" clip-rule="evenodd" d="M11.8396 17.8292C11.3081 17.6991 10.8952 17.2337 10.8586 16.6588L10.6829 13.896C10.6829 12.9218 9.20462 12.9218 9.48063 14.4526L9.59243 16.0701C9.59243 17.5918 10.2175 18.3059 11.1643 18.7531L12.9871 18.8763L12.2229 17.8633C12.159 17.8679 12.0974 17.8656 12.0358 17.8611C11.9697 17.8566 11.9035 17.8452 11.8396 17.8292Z" fill="#FFC5B4"/>
<path fill-rule="evenodd" clip-rule="evenodd" d="M25.9338 35.9118V38.7294V40.0001H28.6349V35.9118C28.6349 35.6677 28.4364 35.4692 28.1923 35.4692H25.4912C25.2471 35.4692 25.9338 35.6677 25.9338 35.9118Z" fill="#ED72AA"/>
<path d="M23.2233 17.8501C22.8174 17.8501 22.4112 17.6989 22.1015 17.3965C21.8629 17.1636 21.8584 16.7814 22.0913 16.5429C22.3242 16.3043 22.7064 16.2998 22.9449 16.5328C23.0985 16.6827 23.3468 16.6833 23.4986 16.534C23.7366 16.3004 24.1187 16.3039 24.3523 16.5417C24.5859 16.7795 24.5825 17.1617 24.3447 17.3953C24.0359 17.6985 23.6297 17.8501 23.2233 17.8501Z" fill="#3D3D46"/>
<path d="M16.7762 17.8501C16.3704 17.8501 15.9642 17.6989 15.6544 17.3965C15.4159 17.1636 15.4114 16.7814 15.6443 16.5429C15.8772 16.3043 16.2593 16.2998 16.4979 16.5328C16.6514 16.6827 16.8998 16.6833 17.0516 16.534C17.2896 16.3004 17.6717 16.3039 17.9053 16.5417C18.1389 16.7795 18.1354 17.1617 17.8976 17.3953C17.5889 17.6985 17.1827 17.8501 16.7762 17.8501Z" fill="#3D3D46"/>
<path d="M19.9993 22.914C19.4818 22.914 18.9649 22.7908 18.5623 22.5442C18.278 22.37 18.1887 21.9984 18.3628 21.7142C18.537 21.4299 18.9086 21.3405 19.1928 21.5147C19.6145 21.773 20.3843 21.7727 20.808 21.5142C21.0925 21.3404 21.4641 21.4304 21.6377 21.7149C21.8114 21.9995 21.7214 22.371 21.4369 22.5446C21.0335 22.7909 20.5162 22.914 19.9993 22.914Z" fill="#ED72AA"/>
</g>
<defs>
<clipPath id="clip0">
<rect width="40" height="40" fill="white"/>
</clipPath>
</defs>
</svg>
