<svg width="40" height="40" viewBox="0 0 40 40" fill="none" xmlns="http://www.w3.org/2000/svg">
<path fill-rule="evenodd" clip-rule="evenodd" d="M17.0315 14.7475C11.5832 13.6907 3.78636 17.5094 3.09706 24.6172C3.09933 27.1005 3.09253 26.3862 3.11534 26.7399C3.11534 28.5089 3.6494 30.6727 4.6948 32.7338C5.70823 34.7265 7.69854 36.799 9.803 38.2165C11.4852 39.3532 13.2382 40.0699 14.6213 39.9946C15.9862 40.0676 17.7163 39.3669 19.3825 38.2553C21.5053 36.8355 23.5229 34.7447 24.5455 32.7338C25.0522 31.734 25.4403 30.7115 25.7027 29.7186C25.9835 28.6663 26.1249 27.6506 26.1249 26.7398C26.1478 26.386 26.141 27.1005 26.1432 24.6171C26.1432 19.76 20.8912 15.4962 17.0315 14.7475Z" fill="#FFDFCF"/>
<path fill-rule="evenodd" clip-rule="evenodd" d="M13.1764 0C7.89475 0.312734 2.05616 4.46234 3.08788 13.047C6.16241 9.46797 16.1162 5.37078 20.9802 5.3868C20.7382 2.05883 17.8555 0.205391 14.4637 0L13.1764 0Z" fill="#FE93D3"/>
<path fill-rule="evenodd" clip-rule="evenodd" d="M23.7466 10.559C19.2638 8.94299 17.7323 13.4282 17.0316 16.9182C20.8913 17.6668 24.4359 20.2324 26.1432 24.6171C29.2656 19.5888 28.7954 13.8025 23.7466 10.559Z" fill="#ED72AA"/>
<path fill-rule="evenodd" clip-rule="evenodd" d="M24.5454 32.7338C25.0521 31.7341 25.4401 30.7115 25.7026 29.7186C25.9833 28.6663 26.1248 27.6506 26.1248 26.7398C26.1476 26.386 26.1408 27.1005 26.1431 24.6171C24.4358 20.2323 20.8912 17.6668 17.0315 16.9181C15.4612 16.6145 13.8405 16.61 12.2702 16.9067C12.6765 16.9455 13.0828 17.0026 13.4822 17.0801C18.029 17.9635 22.902 21.8963 22.5779 26.9019C22.5779 31.5948 19.6289 35.8814 15.8332 38.4173C14.9225 39.0267 13.9935 39.5106 13.1125 39.8141C13.6465 39.9556 14.1533 40.0195 14.6212 39.9944C15.9862 40.0675 17.7162 39.3667 19.3825 38.2551C21.5051 36.8355 23.5229 34.7448 24.5454 32.7338Z" fill="#FFCEBF"/>
<path fill-rule="evenodd" clip-rule="evenodd" d="M3.08793 13.047C5.43887 8.02992 10.8711 4.36649 18.013 4.53539C18.5745 4.54906 19.0995 4.63125 19.5857 4.77047C20.0924 4.91656 20.5603 5.12656 20.9803 5.38672C20.9118 4.43946 20.6288 3.61321 20.1814 2.90789C19.5058 2.67047 18.7526 2.52899 17.9309 2.51071C11.4601 2.37149 6.26973 4.85031 3.20895 8.54805C2.94637 9.88563 2.88707 11.383 3.08793 13.047Z" fill="#ED72AA"/>
<path fill-rule="evenodd" clip-rule="evenodd" d="M23.7462 10.5591C23.726 14.702 20.8956 17.509 17.0313 16.918C11.5831 15.8615 5.50767 18.427 3.09681 24.6168C1.76814 21.6721 1.5097 18.6339 2.13454 15.8382C2.34954 14.8743 2.67001 13.9394 3.0879 13.0472C3.0879 13.0472 3.0879 13.0456 3.08868 13.0464C5.43915 8.0298 10.8713 4.36683 18.0129 4.53511C19.1588 4.56245 20.154 4.87574 20.9802 5.38706C22.7421 6.47824 23.7325 8.47519 23.7462 10.5591Z" fill="#FE93D3"/>
<path fill-rule="evenodd" clip-rule="evenodd" d="M3.097 24.617C4.81341 20.2094 8.38778 17.6393 12.2703 16.9066C13.8406 16.6099 15.4611 16.6144 17.0315 16.918C20.8958 17.5092 23.7261 14.7017 23.7465 10.5589C23.7351 8.87664 23.0869 7.24921 21.9091 6.11023C21.9936 6.52562 22.0369 6.95023 22.0392 7.37929C22.0186 11.5221 19.1884 14.3273 15.3242 13.7384C10.2229 12.7501 4.57372 14.9344 1.89638 20.2962C2.05841 21.7319 2.45106 23.1859 3.097 24.617Z" fill="#ED72AA"/>
<path d="M18.024 31.8451C17.8916 31.8451 17.7583 31.8017 17.6469 31.7126C17.3865 31.5041 17.3445 31.124 17.553 30.8636L20.9767 26.5883C21.1851 26.328 21.5652 26.2861 21.8256 26.4944C22.086 26.703 22.128 27.083 21.9195 27.3434L18.4958 31.6187C18.3766 31.7676 18.201 31.8451 18.024 31.8451Z" fill="#CFCFD7"/>
<path d="M34.5925 16.3603C34.46 16.3603 34.3266 16.317 34.2152 16.2276L29.1435 12.1625C28.8833 11.9539 28.8414 11.5737 29.05 11.3135C29.2586 11.0531 29.6386 11.0113 29.899 11.2199L34.9706 15.2851C35.2309 15.4937 35.2727 15.8739 35.0641 16.1341C34.9449 16.2829 34.7695 16.3603 34.5925 16.3603Z" fill="black"/>
<path fill-rule="evenodd" clip-rule="evenodd" d="M24.8512 25.868L23.9155 25.1148L22.7628 24.1926L21.7791 23.4052L21.1445 24.1994C20.4666 25.044 20.6036 26.2902 21.4481 26.9659C22.1557 27.5342 23.144 27.5296 23.8447 27.0161C23.9017 26.975 23.9566 26.9294 24.0091 26.8814C24.0821 26.8152 24.1529 26.7399 24.2168 26.66L24.8512 25.868Z" fill="#54B2D3"/>
<path fill-rule="evenodd" clip-rule="evenodd" d="M34.5927 15.756L26.6523 25.6692C26.2617 26.158 25.5773 26.2812 25.045 25.9953C24.979 25.9591 24.913 25.9157 24.8509 25.8682C23.8283 25.046 22.8041 24.2271 21.779 23.405C21.3796 23.0853 21.2242 22.5724 21.3361 22.1037C21.3796 21.9257 21.4593 21.755 21.5801 21.6045C21.9159 21.1857 22.2524 20.7662 22.5874 20.3467C22.8402 20.0326 23.0915 19.7186 23.3427 19.4046C23.8202 18.8103 24.297 18.2153 24.7728 17.6202C25.0249 17.3061 25.2761 16.9921 25.5281 16.6781C26.0049 16.083 26.4824 15.4871 26.9582 14.8913C27.211 14.5772 27.4623 14.2632 27.7135 13.9492C28.3167 13.1963 28.919 12.4442 29.5213 11.6913L30.7605 12.6842L33.3557 14.7633L34.5927 15.756Z" fill="#ECEDF0"/>
<path fill-rule="evenodd" clip-rule="evenodd" d="M33.3558 14.7635L36.5832 10.7371L33.9857 8.65771L30.7605 12.6841L33.3558 14.7635Z" fill="#CFCFD7"/>
<path d="M28.9375 15.7053C28.8184 15.8534 28.6428 15.9307 28.4664 15.9307C28.3335 15.9307 28.1999 15.8881 28.0888 15.7987L26.959 14.892L26.9582 14.8912C27.211 14.5771 27.4623 14.2632 27.7135 13.9491L27.7143 13.9499L28.8449 14.8557C29.105 15.0651 29.1469 15.4452 28.9375 15.7053Z" fill="#3D3D46"/>
<path d="M28.0413 19.4618C27.9222 19.6108 27.7466 19.688 27.5694 19.688C27.4374 19.688 27.3037 19.6445 27.1926 19.556L24.7729 17.6202C25.0249 17.3061 25.2762 16.9921 25.5282 16.6781L27.9471 18.6131C28.2072 18.8208 28.2498 19.2009 28.0413 19.4618Z" fill="#3D3D46"/>
<path d="M24.5667 21.1599C24.4476 21.3089 24.272 21.3862 24.0956 21.3862C23.9627 21.3862 23.8291 21.3427 23.718 21.2533L22.5882 20.3474L22.5874 20.3466C22.8402 20.0326 23.0915 19.7186 23.3427 19.4045L23.3435 19.4053L24.4733 20.3112C24.7334 20.5198 24.7753 20.8999 24.5667 21.1599Z" fill="#3D3D46"/>
<path fill-rule="evenodd" clip-rule="evenodd" d="M35.1247 9.56836L31.8972 13.5948L33.1344 14.5877L33.3558 14.7634L36.5832 10.737L35.1247 9.56836Z" fill="#9292A3"/>
<path fill-rule="evenodd" clip-rule="evenodd" d="M33.1344 14.5876L27.5834 21.5197L26.0427 23.4416L25.7802 23.768L25.1937 24.5006C24.7531 25.0484 23.9429 25.1398 23.3928 24.6992L23.9155 25.1146L24.8513 25.8678C24.9129 25.9158 24.9791 25.9591 25.0452 25.9956C25.3876 26.1805 25.7939 26.1942 26.1431 26.0504C26.3371 25.9705 26.5129 25.8427 26.6521 25.6692L34.5928 15.7562L33.3557 14.7633L33.1344 14.5876Z" fill="#CFCFD7"/>
<path d="M37.5848 12.1445C37.4523 12.1445 37.319 12.1011 37.2076 12.0119L32.6061 8.32558C32.3458 8.11707 32.3039 7.73699 32.5124 7.4766C32.721 7.21629 33.101 7.17433 33.3613 7.38285L37.9628 11.0692C38.2231 11.2777 38.265 11.6578 38.0565 11.9182C37.9372 12.0671 37.7618 12.1445 37.5848 12.1445Z" fill="#54B2D3"/>
<path d="M17.1119 10.4738C17.0442 10.7999 16.7245 11.01 16.3977 10.9425C11.4841 9.92706 5.71063 11.6237 2.96797 14.8897C2.89227 14.98 2.47274 15.4848 2.13454 15.8383C2.34954 14.8745 2.67001 13.9396 3.0879 13.0474C3.0879 13.0474 3.0879 13.0457 3.08868 13.0466C4.50915 11.7896 6.3861 10.7839 8.5111 10.1575C11.1813 9.3691 14.0696 9.22824 16.6424 9.7605C16.9694 9.82714 17.1795 10.1468 17.1119 10.4738Z" fill="#ED72AA"/>
<path d="M35.6789 17.2299C35.5464 17.2299 35.4131 17.1866 35.3017 17.0974L28.0571 11.2928C27.7968 11.0842 27.7549 10.7042 27.9634 10.4439C28.172 10.1835 28.5521 10.1417 28.8124 10.3501L36.057 16.1547C36.3173 16.3632 36.3592 16.7433 36.1506 17.0036C36.0313 17.1525 35.8559 17.2299 35.6789 17.2299Z" fill="#54B2D3"/>
</svg>
