<svg width="40" height="40" viewBox="0 0 40 40" fill="none" xmlns="http://www.w3.org/2000/svg">
<g clip-path="url(#clip0)">
<path fill-rule="evenodd" clip-rule="evenodd" d="M4.16125 24.6243C4.16125 27.1058 4.15437 26.3932 4.17726 26.7461C4.17726 28.5127 4.71117 30.678 5.75828 32.7357C7.57984 36.324 12.5703 40.162 15.6773 39.9947C17.9319 40.1162 21.1765 38.1296 23.4861 35.6595C24.9021 29.2162 29.2029 26.533 25.8301 22.0144C19.7948 10.4407 7.4539 13.0002 4.16125 24.6243Z" fill="#FFDFCF"/>
<path fill-rule="evenodd" clip-rule="evenodd" d="M22.0356 5.40425C21.394 -3.37856 2.35335 -1.88684 4.15202 13.0597C8.01061 10.482 18.0557 5.99316 22.0356 5.40425Z" fill="#FE93D3"/>
<path fill-rule="evenodd" clip-rule="evenodd" d="M19.7283 1.93053C12.7077 1.76553 7.16049 4.90474 4.12908 9.47373C3.99619 10.569 3.99619 11.7651 4.15197 13.0597C6.50056 8.04396 11.9309 4.38467 19.0684 4.5542C20.214 4.57943 21.2084 4.89334 22.0356 5.40428C21.9325 3.9974 21.3574 2.8517 20.4707 1.98553C20.2301 1.95576 19.9827 1.9374 19.7283 1.93053Z" fill="#ED72AA"/>
<path fill-rule="evenodd" clip-rule="evenodd" d="M20.9771 32.4607C19.749 35.8588 17.5104 38.5534 14.7471 39.9374C15.0725 39.9901 15.384 40.0108 15.6773 39.9947C17.9319 40.1162 21.1764 38.1295 23.4861 35.6594C22.4711 34.6375 21.566 33.5284 20.9771 32.4607Z" fill="#FFCEBF"/>
<path fill-rule="evenodd" clip-rule="evenodd" d="M22.6681 23.4878C23.7886 23.1854 24.7853 22.7546 25.8302 22.0145C24.5654 19.5879 23.0233 17.7846 21.3461 16.5519C20.7068 16.8314 20.0011 16.9873 19.2404 17.0056C18.8669 17.0147 18.4819 16.9895 18.0879 16.9299C12.6414 15.8736 6.56945 18.4376 4.16125 24.6243C4.16125 27.1059 4.15437 26.3932 4.17726 26.7461C4.17726 26.7759 4.17726 26.808 4.17953 26.8401C4.19789 26.8813 4.21617 26.9203 4.23453 26.9592C6.755 20.7748 13.1087 18.2085 18.8072 19.2648C21.0688 19.8537 22.1343 21.0016 22.6681 23.4878Z" fill="#FFCEBF"/>
<path fill-rule="evenodd" clip-rule="evenodd" d="M24.799 10.5736C20.913 12.0767 19.112 15.5849 18.0878 16.9298C21.1032 17.5141 23.926 19.2098 25.8301 22.0144C26.6367 21.4438 27.473 20.69 28.4193 19.6726C28.6507 19.4205 28.8226 19.4205 29.0562 19.6726C29.5443 16.1553 28.2291 12.7779 24.799 10.5736Z" fill="#ED72AA"/>
<path fill-rule="evenodd" clip-rule="evenodd" d="M24.7989 10.5738C24.7787 14.7139 21.9489 17.5186 18.0874 16.9295C12.6411 15.8736 6.56948 18.4378 4.16143 24.6245C2.8005 21.6112 2.56221 18.4982 3.24471 15.649C3.43464 14.8547 3.69706 14.0812 4.0262 13.3368C4.06643 13.2442 4.10909 13.1517 4.15175 13.0599C6.50026 8.04427 11.9313 4.38466 19.0685 4.55451C20.2137 4.57943 21.2085 4.89333 22.0359 5.40443C23.7953 6.49497 24.7852 8.49091 24.7989 10.5738Z" fill="#FE93D3"/>
<path fill-rule="evenodd" clip-rule="evenodd" d="M15.7622 14.4437C11.01 13.5226 5.78122 15.3579 2.92395 19.9499C3.05911 21.5012 3.46239 23.0753 4.16122 24.6243C6.56934 18.4376 12.6413 15.8736 18.0878 16.9299C21.9486 17.5188 24.7784 14.7141 24.799 10.5737C24.7875 8.77037 24.0429 7.03123 22.7025 5.89014C23.0783 10.5737 21.2704 15.2847 15.7622 14.4437Z" fill="#ED72AA"/>
<path fill-rule="evenodd" clip-rule="evenodd" d="M28.4192 19.6725C27.4729 20.6899 26.6365 21.4438 25.8301 22.0143C24.2949 23.1004 22.8674 23.5221 20.9977 23.8429C20.1637 23.9849 20.3814 24.1133 20.3562 25.1604V30.2747C20.3562 30.694 20.3287 30.8773 20.4615 31.292C20.9083 32.6943 22.0952 34.257 23.4861 35.6594C24.8837 37.0708 26.4877 38.3173 27.7525 39.0735C28.0916 39.2751 28.4147 39.3783 28.7377 39.3783C29.0585 39.3783 29.3815 39.2751 29.7207 39.0735C32.2434 37.5658 36.1134 34.1035 37.0116 31.292C37.1445 30.8772 37.117 30.694 37.117 30.2747V25.1604C37.0918 24.1132 37.3095 23.9849 36.4755 23.8429C33.6251 23.3525 31.7989 22.6284 29.0562 19.6725C28.8225 19.4205 28.6506 19.4205 28.4192 19.6725Z" fill="#B2E8CC"/>
<path fill-rule="evenodd" clip-rule="evenodd" d="M28.4192 19.6725C28.071 20.046 27.7364 20.3851 27.4156 20.6922C29.7894 23.2448 31.2146 26.5032 31.2146 30.0571C31.2146 33.446 29.9178 36.5691 27.7364 39.0644L27.7524 39.0735C28.0916 39.2752 28.4146 39.3783 28.7377 39.3783C29.0585 39.3783 29.3815 39.2752 29.7206 39.0735C32.2434 37.5658 36.1134 34.1035 37.0116 31.2921C37.1445 30.8773 37.117 30.694 37.117 30.2747V25.1604C37.0917 24.1132 37.3095 23.985 36.4754 23.8429C33.625 23.3526 31.7989 22.6285 29.0562 19.6726C28.8225 19.4205 28.6506 19.4205 28.4192 19.6725Z" fill="#65CD98"/>
<path d="M16.7265 10.9136C16.6653 11.2412 16.3506 11.4577 16.0223 11.3965C12.1695 10.6762 6.76834 12.2786 3.9828 14.9675C3.91842 15.0295 3.56991 15.3619 3.24475 15.6492C3.43467 14.8549 3.69709 14.0814 4.02624 13.337C7.23827 10.838 12.3611 9.48423 16.2444 10.2094C16.5719 10.2705 16.7876 10.586 16.7265 10.9136Z" fill="#ED72AA"/>
<path d="M32.3626 32.7641C32.0292 32.7641 31.759 32.4939 31.759 32.1605V31.0044H29.3771C29.1636 31.0044 28.9658 30.8915 28.8572 30.7076C28.7487 30.5237 28.7454 30.2961 28.8486 30.1091C29.1842 29.5011 30.8757 26.4463 31.2169 26.0233C31.5144 25.6601 31.9122 25.5146 32.2843 25.6301C32.6601 25.747 32.9269 26.1114 32.9641 26.5584C32.9655 26.5751 32.9662 26.5919 32.9662 26.6086V29.7972H33.1233C33.4568 29.7972 33.7269 30.0674 33.7269 30.4008C33.7269 30.7341 33.4567 31.0044 33.1233 31.0044H32.9662V32.1604C32.9662 32.4939 32.696 32.7641 32.3626 32.7641ZM30.4025 29.7971H31.759V27.4175C31.4197 27.9921 30.9163 28.8773 30.4025 29.7971Z" fill="#3D3D46"/>
<path d="M25.9267 32.9694C24.7663 32.9694 24.6801 32.9405 24.6011 32.9142C24.4006 32.8473 24.2508 32.6958 24.19 32.4983C24.0856 32.159 24.2283 31.972 24.6097 31.4722C24.9131 31.0747 25.4778 30.3348 26.4215 28.9869C26.6977 28.593 26.8771 28.238 26.9556 27.9307L26.9739 27.7757C26.9574 27.2815 26.5502 26.8846 26.0521 26.8846C25.6128 26.8846 25.2316 27.1979 25.1456 27.6294C25.0804 27.9563 24.7625 28.1683 24.4356 28.1033C24.1086 28.0382 23.8964 27.7203 23.9616 27.3933C24.1598 26.399 25.039 25.6772 26.0521 25.6772C27.2263 25.6772 28.1817 26.6326 28.1817 27.8069C28.1817 27.8308 28.1803 27.8545 28.1775 27.8782L28.15 28.1096C28.1474 28.1322 28.1434 28.1546 28.1381 28.1767C28.0288 28.6412 27.7838 29.1468 27.4102 29.6796C26.729 30.6526 26.2416 31.3144 25.906 31.7609C26.4611 31.7606 27.1643 31.7554 27.8248 31.7471C27.8274 31.747 27.8299 31.747 27.8326 31.747C28.1624 31.747 28.4318 32.0122 28.4359 32.343C28.4402 32.6764 28.1734 32.9501 27.84 32.9542C26.9966 32.9649 26.3797 32.9694 25.9267 32.9694Z" fill="#3D3D46"/>
</g>
<defs>
<clipPath id="clip0">
<rect width="40" height="40" fill="white"/>
</clipPath>
</defs>
</svg>
