<svg width="40" height="40" viewBox="0 0 40 40" fill="none" xmlns="http://www.w3.org/2000/svg">
<path fill-rule="evenodd" clip-rule="evenodd" d="M3.22646 24.6171C3.22873 27.7602 3.28584 29.7026 4.8242 32.7338C5.83763 34.7288 7.82795 36.799 9.9324 38.2188C11.6146 39.3532 13.3676 40.0699 14.7507 39.9945C16.1156 40.0676 17.8457 39.3692 19.5119 38.2553C21.6347 36.8355 23.6523 34.7447 24.6749 32.7338C25.2409 31.6199 25.6061 30.6544 25.8412 29.7208C26.2475 28.1139 26.2726 26.6052 26.2726 24.617C26.7519 19.034 21.0207 14.0512 17.161 13.3025C15.5907 12.9989 13.9701 12.9944 12.3997 13.2911C8.51724 14.0239 3.09865 19.0341 3.22646 24.6171Z" fill="#FFDFCF"/>
<path fill-rule="evenodd" clip-rule="evenodd" d="M13.6117 17.6486C17.4714 18.3973 21.0161 20.9651 22.7233 25.3476C22.7233 28.6412 22.6138 30.5358 21.1256 33.4643C19.7995 36.0778 16.8642 38.7369 14.212 39.9855C14.3968 40.0015 14.5749 40.0037 14.7507 39.9946C16.1156 40.0676 17.8457 39.3692 19.5119 38.2553C21.6347 36.8355 23.6523 34.7448 24.6749 32.7338C25.2409 31.6199 25.6061 30.6544 25.8412 29.7208C26.2475 28.114 26.2726 26.6052 26.2726 24.6171C24.5654 20.2323 21.0207 17.6668 17.161 16.9181C15.5907 16.6145 13.9701 16.61 12.3997 16.9067C11.7401 17.0323 11.0896 17.2103 10.4528 17.4408C11.5096 17.3769 12.5732 17.4477 13.6117 17.6486Z" fill="#FFCEBF"/>
<path fill-rule="evenodd" clip-rule="evenodd" d="M13.3058 0C8.02419 0.312734 2.18567 4.46234 3.21732 13.047C6.29185 9.46797 16.2457 5.37078 21.1097 5.3868C20.8677 2.05883 17.9849 0.205391 14.5932 0L13.3058 0Z" fill="#FE93D3"/>
<path fill-rule="evenodd" clip-rule="evenodd" d="M23.8761 10.559C19.3932 8.943 17.8618 13.4281 17.1611 16.9181C21.0207 17.6668 24.5654 20.2324 26.2727 24.6171C29.3951 19.5888 28.9249 13.8048 23.8761 10.559Z" fill="#ED72AA"/>
<path fill-rule="evenodd" clip-rule="evenodd" d="M3.21729 13.047C5.56822 8.02996 11.0005 4.36652 18.1424 4.53543C18.7038 4.5491 19.2288 4.63128 19.715 4.7705C20.2217 4.9166 20.6896 5.1266 21.1096 5.38675C21.0412 4.43949 20.7581 3.61324 20.3108 2.90793C19.6352 2.6705 18.882 2.52902 18.0603 2.51308C11.5894 2.3716 6.39908 4.85043 3.3383 8.55043C3.0758 9.88566 3.01643 11.383 3.21729 13.047Z" fill="#ED72AA"/>
<path fill-rule="evenodd" clip-rule="evenodd" d="M23.8759 10.5594C23.8558 14.7016 21.0255 17.5094 17.1612 16.9183C11.7131 15.861 5.63681 18.4273 3.22681 24.617C1.82813 21.5201 1.61478 18.3162 2.36923 15.4012C2.5786 14.5912 2.86282 13.8037 3.21712 13.0468C3.24126 12.9961 3.2654 12.9453 3.2904 12.8946C5.67868 7.95616 11.0729 4.36804 18.1427 4.53554C19.2886 4.56288 20.2831 4.8753 21.11 5.38663C22.8719 6.47772 23.8623 8.47554 23.8759 10.5594Z" fill="#FE93D3"/>
<path fill-rule="evenodd" clip-rule="evenodd" d="M3.22643 24.6171C4.94283 20.2096 8.51721 17.6394 12.3997 16.9068C13.97 16.61 15.5906 16.6146 17.161 16.9182C21.0252 17.5093 23.8555 14.7018 23.876 10.559C23.8646 8.87676 23.2163 7.24934 22.0385 6.11035C22.123 6.52574 22.1663 6.95035 22.1686 7.37941C22.1481 11.5222 19.3178 14.3297 15.4536 13.7386C10.3523 12.7502 4.70315 14.9346 2.0258 20.2963C2.18791 21.7321 2.58049 23.1861 3.22643 24.6171Z" fill="#ED72AA"/>
<path d="M17.3303 11.4628C17.2184 11.7769 16.873 11.9403 16.5589 11.8284C12.2735 10.2992 6.27135 11.5377 3.18096 14.5887C3.10768 14.6612 2.70104 15.0895 2.36932 15.4012C2.5787 14.5911 2.86292 13.8036 3.21721 13.0467C3.24136 12.996 3.2655 12.9452 3.2905 12.8945C4.84057 11.6996 6.84636 10.8026 9.06557 10.3251C11.8291 9.72923 14.6345 9.8597 16.9649 10.6906C17.2788 10.8034 17.4423 11.1488 17.3303 11.4628Z" fill="#ED72AA"/>
<path fill-rule="evenodd" clip-rule="evenodd" d="M18.971 23.9963C15.2597 24.5532 12.7056 28.0135 13.2626 31.7227C13.6734 34.4503 15.6524 36.5548 18.1471 37.2556C18.9186 37.4724 19.738 37.5545 20.578 37.4792C20.7149 37.4678 20.8519 37.4518 20.9911 37.4313C23.4265 37.0638 25.3643 35.4477 26.2499 33.3295C26.7133 32.2202 26.889 30.9763 26.6973 29.7026C26.6014 29.0589 26.4165 28.4517 26.1609 27.888C25.394 26.2103 23.9766 24.9298 22.2738 24.3158C21.2489 23.9483 20.1213 23.8228 18.971 23.9963Z" fill="#97DBF2"/>
<path fill-rule="evenodd" clip-rule="evenodd" d="M19.5393 24.5966C20.8015 25.0485 21.9086 25.8703 22.7074 26.9476C22.9858 27.3242 23.2278 27.7328 23.4264 28.1665C23.6843 28.7303 23.8692 29.3374 23.965 29.9811C24.1568 31.2548 23.9811 32.501 23.5177 33.6081C22.7599 35.4181 21.2352 36.8606 19.2883 37.4724C19.7105 37.5157 20.1419 37.518 20.5779 37.4792C20.7148 37.4678 20.8518 37.4518 20.991 37.4313C23.4264 37.0638 25.3642 35.4478 26.2498 33.3295C26.7132 32.2203 26.8889 30.9763 26.6972 29.7026C26.6013 29.0589 26.4164 28.4517 26.1607 27.888C25.3939 26.2103 23.9765 24.9298 22.2737 24.3158C21.2489 23.9483 20.1214 23.8228 18.971 23.9963C18.6149 24.0488 18.2725 24.1287 17.9393 24.2314C18.4917 24.2885 19.0304 24.4117 19.5393 24.5966Z" fill="#54B2D3"/>
<path d="M29.3036 35.1367C29.23 35.1367 29.1552 35.1232 29.0825 35.0946L26.0285 33.8917C25.7182 33.7694 25.5657 33.4188 25.6879 33.1084C25.8103 32.7981 26.1608 32.6457 26.4712 32.7678L29.5252 33.9707C29.8355 34.093 29.9879 34.4436 29.8657 34.754C29.7721 34.9916 29.5445 35.1367 29.3036 35.1367Z" fill="#9292A3"/>
<path d="M19.978 38.1111C16.3809 38.1114 13.2172 35.4752 12.6654 31.8127C12.372 29.8587 12.8568 27.9077 14.0304 26.3187C15.2043 24.7293 16.9269 23.6925 18.881 23.3992C20.8345 23.1047 22.7855 23.5887 24.3749 24.7622C25.9643 25.9359 27.0012 27.6587 27.2944 29.6131C27.5888 31.5662 27.1048 33.5175 25.9314 35.1069C24.758 36.6964 23.0353 37.734 21.0809 38.0285C20.7105 38.0842 20.3419 38.1111 19.978 38.1111ZM19.9965 24.5231C19.6862 24.5231 19.3737 24.5464 19.0611 24.5935C19.0609 24.5935 19.0608 24.5936 19.0607 24.5936C17.4256 24.8389 15.9842 25.7064 15.002 27.0363C14.02 28.3658 13.6143 29.9984 13.8598 31.6332C14.3215 34.6974 16.9691 36.9032 19.9786 36.9033C20.2832 36.9034 20.5912 36.8807 20.9014 36.8342C22.5365 36.5878 23.9779 35.7196 24.9597 34.3896C25.9415 33.0598 26.3465 31.4272 26.1001 29.7928C25.8547 28.1571 24.9872 26.7158 23.6574 25.7339C22.5822 24.9398 21.3088 24.5231 19.9965 24.5231ZM18.9711 23.9964H18.9719H18.9711Z" fill="#9292A3"/>
<path fill-rule="evenodd" clip-rule="evenodd" d="M29.3037 34.5325L28.7012 36.0595C28.5984 36.322 28.7286 36.6187 28.9887 36.7215L30.8991 37.4747L32.4786 33.4688L30.5681 32.7156C30.3056 32.6129 30.0089 32.743 29.9062 33.0032L29.3037 34.5325Z" fill="#FFE07D"/>
<path fill-rule="evenodd" clip-rule="evenodd" d="M32.4787 33.4689L30.8992 37.4747L35.1195 39.1364C36.2219 39.5701 37.4773 39.0246 37.911 37.9244C38.3447 36.8219 37.7991 35.5665 36.6967 35.1306L32.4787 33.4689Z" fill="#FFCB64"/>
<path fill-rule="evenodd" clip-rule="evenodd" d="M28.9887 36.7213L30.8991 37.4745L31.4401 36.1005L29.0549 35.1624L28.7012 36.0594C28.5984 36.3219 28.7286 36.6187 28.9887 36.7213Z" fill="#FFD064"/>
<path fill-rule="evenodd" clip-rule="evenodd" d="M30.8992 37.4746L35.1196 39.1363C36.222 39.57 37.4774 39.0244 37.911 37.9243C38.29 36.9611 37.9202 35.8791 37.0848 35.3313C37.0689 35.5413 37.0232 35.7513 36.9433 35.9544C36.5096 37.0569 35.252 37.6024 34.1518 37.1687L31.4403 36.1005L30.8992 37.4746Z" fill="#FAAD14"/>
</svg>
