<svg width="40" height="40" viewBox="0 0 40 40" fill="none" xmlns="http://www.w3.org/2000/svg">
<g clip-path="url(#clip0)">
<path d="M25.8627 25.5683C29.5627 27.0027 31.9374 29.2232 31.9374 31.7159C31.9374 36.0414 24.788 39.5479 15.9687 39.5479C7.14939 39.5479 0 36.0414 0 31.7159C0 29.2232 2.37471 27.0027 6.07473 25.5683L11.9204 23.9213H22.2041L25.8627 25.5683Z" fill="#CFCFD7"/>
<path d="M6.94611 27.9799C9.38312 29.1751 12.5874 29.8333 15.9688 29.8333C19.35 29.8333 22.5544 29.1751 24.9914 27.9799C25.9926 27.4888 26.8321 26.9224 27.499 26.2978C26.9888 26.0366 26.442 25.7928 25.8627 25.5682L22.2041 23.9211H15.181L11.0077 25.1486L7.92353 25.9869C8.73285 25.4686 9.67105 25.0014 10.7149 24.5967L13.1124 23.9211H11.9204L6.07473 25.5682C2.37471 27.0026 0 29.2232 0 31.7159C0 36.0413 7.14947 39.5478 15.9688 39.5478C19.0961 39.5478 22.0129 39.1065 24.476 38.3445C23.2377 38.4956 21.9426 38.5763 20.6089 38.5763C11.7896 38.5763 4.64016 35.0698 4.64016 30.7444C4.64016 29.9253 4.89694 29.1357 5.37274 28.3937C5.70602 27.8738 6.38268 27.703 6.93691 27.9753C6.9399 27.9769 6.94296 27.9783 6.94611 27.9799Z" fill="#9292A3"/>
<path d="M21.4602 17.356C25.1852 18.3232 27.7236 20.2431 27.7236 22.4543C27.7236 25.6383 22.4608 28.2195 15.9688 28.2195C9.47673 28.2195 4.21382 25.6383 4.21382 22.4543C4.21382 20.2431 6.75219 18.3232 10.4772 17.356C10.4772 17.356 14.1823 16.5613 14.2642 16.5613C14.3461 16.5613 19.4262 16.5613 19.4262 16.5613L21.4602 17.356Z" fill="#CFCFD7"/>
<path d="M8.58784 19.7278C9.03934 19.1129 9.84681 18.8662 10.5668 19.1184C12.1521 19.6737 14.0221 19.9735 15.9688 19.9735C18.4516 19.9735 20.8112 19.4869 22.6129 18.6032C22.9581 18.4339 23.2797 18.2517 23.5747 18.0589C22.9266 17.789 22.2178 17.5527 21.4601 17.3561L19.4262 16.5613H14.6229L13.5747 16.4331L12.506 16.9235C11.5163 17.1332 10.4772 17.3561 10.4772 17.3561C6.75219 18.3232 4.21382 20.2432 4.21382 22.4543C4.21382 25.6384 9.47665 28.2196 15.9687 28.2196C18.332 28.2196 20.532 27.8773 22.375 27.2886C21.5007 27.3903 20.5889 27.4445 19.6512 27.4445C13.1592 27.4445 7.89633 24.8633 7.89633 21.6792C7.89633 20.9941 8.14044 20.3371 8.58784 19.7278Z" fill="#9292A3"/>
<path d="M15.9688 18.3596C20.6031 18.3596 24.36 16.517 24.36 14.2441C24.36 11.9711 20.6031 10.1285 15.9688 10.1285C11.3345 10.1285 7.57764 11.9711 7.57764 14.2441C7.57764 16.517 11.3345 18.3596 15.9688 18.3596Z" fill="#CFCFD7"/>
<path d="M19.1679 17.4806C14.5335 17.4806 10.7767 15.638 10.7767 13.3651C10.7767 12.1471 11.8546 11.0529 13.569 10.2994C10.1036 10.8056 7.57756 12.3799 7.57756 14.2441C7.57756 16.517 11.3344 18.3596 15.9687 18.3596C18.1198 18.3596 20.0814 17.9625 21.5664 17.3098C20.8064 17.4207 20.0015 17.4806 19.1679 17.4806Z" fill="#9292A3"/>
<path d="M27.2101 37.6967L26.5712 27.4235L23.7335 25.9042L23.2502 25.5685C21.6515 24.5476 19.8568 24.0053 17.8765 23.9222C17.4326 23.9036 17.0614 24.2571 17.0614 24.7009V30.972C17.0614 35.3047 20.2744 38.8865 24.4473 39.4654L24.4474 39.4654L24.4486 39.4655C24.6596 39.4947 24.873 39.5165 25.0886 39.5301L27.2101 37.6967Z" fill="#B2E8CC"/>
<path d="M19.5167 29.9575V24.1055C18.9848 24.0075 18.4384 23.9456 17.8765 23.9221C17.4326 23.9035 17.0614 24.257 17.0614 24.7008V30.9719C17.0614 35.3046 20.2744 38.8864 24.4473 39.4652L24.4474 39.4653L24.4486 39.4654C24.6596 39.4946 24.873 39.5164 25.0886 39.53L26.4296 38.3711C22.4894 37.5972 19.5167 34.125 19.5167 29.9575Z" fill="#82D9AD"/>
<path d="M39.1849 23.9221C37.2038 24.0052 35.4098 24.5475 33.8112 25.5683L33.3181 25.8855L28.5304 33.3059L31.9438 39.5316C36.4387 39.2628 39.9999 35.533 39.9999 30.9719V24.7008C39.9999 24.257 39.6287 23.9035 39.1849 23.9221Z" fill="#B2E8CC"/>
<path d="M39.9999 24.7008C39.9999 24.257 39.6287 23.9035 39.1849 23.9221C37.2038 24.0052 35.4098 24.5475 33.8112 25.5683L33.3181 25.8855L28.5304 33.3059L28.718 33.648L31.9438 39.5316C32.5878 39.4931 33.2125 39.3832 33.8105 39.2103L35.0614 36.0818C36.1371 33.4699 36.3497 30.5945 35.7125 27.8791C35.5434 27.1585 35.9156 26.4184 36.597 26.1289C37.6583 25.678 38.7933 25.4077 39.9999 25.313V24.7008Z" fill="#82D9AD"/>
<path d="M33.3182 25.8855C34.724 28.856 34.8595 32.3405 33.5659 35.4748L31.9439 39.5315C31.772 39.5428 31.5985 39.5477 31.4234 39.5477H25.6373C25.4533 39.5477 25.2702 39.542 25.0886 39.5299L23.4956 35.4748C22.2044 32.347 22.336 28.8697 23.7337 25.904C24.4269 24.4329 25.4316 23.0876 26.7276 21.9732L28.0312 20.8529C28.3182 20.6062 28.7425 20.6062 29.0296 20.8529L30.3332 21.9732C31.6243 23.0828 32.6258 24.4216 33.3182 25.8855Z" fill="#8ADDB2"/>
<path d="M26.9026 35.4748C25.6114 32.347 25.7429 28.8697 27.1406 25.904C27.8338 24.4329 28.8385 23.0876 30.1345 21.9732L30.2339 21.8879L29.0296 20.8529C28.7426 20.6062 28.3183 20.6062 28.0312 20.8529L26.7276 21.9732C25.4316 23.0876 24.4269 24.4329 23.7337 25.904C22.336 28.8697 22.2045 32.347 23.4957 35.4748L25.0886 39.5299C25.2702 39.542 25.4534 39.5477 25.6374 39.5477H29.0444C28.8604 39.5477 28.6772 39.542 28.4956 39.5299L26.9026 35.4748Z" fill="#65CD98"/>
<path d="M28.9974 12.9328C28.9974 11.5833 30.0913 10.4895 31.4407 10.4895H34.4712C37.2263 10.4895 39.4597 8.25596 39.4597 5.50092V0.989962C39.4597 0.69283 39.2188 0.452026 38.9218 0.452026H33.9323C33.6352 0.452026 33.3944 0.692911 33.3944 0.989962V3.12589C33.3944 4.49421 32.2851 5.60349 30.9168 5.60349H30.4831C28.4893 5.60349 26.8731 7.21972 26.8731 9.21345V10.7154C26.8731 10.8595 26.9255 10.9988 27.0204 11.1073L28.7125 13.0399C28.8113 13.1528 28.9974 13.0829 28.9974 12.9328Z" fill="#ECEDF0"/>
</g>
<defs>
<clipPath id="clip0">
<rect width="40" height="40" fill="white"/>
</clipPath>
</defs>
</svg>
